#!OML:ASF F:\VICON\USERDATA\INSTALL\rory3\rory3.ASF
:FULLY-SPECIFIED
:DEGREES


362
root -0.0818878 17.5316 36.4401 -0.705449 -6.5666 -7.95408
lowerback 9.69042 2.39445 7.17464
upperback 0.132387 4.09815 2.16631
thorax -4.95975 1.87147 -2.30831
lowerneck -15.6678 -2.9675 -1.60979
upperneck 19.3915 -4.02959 1.47518
head 8.70518 -1.85788 0.279946
rclavicle 2.23967e-014 3.60297e-015
rhumerus -17.2398 -9.58981 -82.1456
rradius 32.5038
rwrist 0.32692
rhand -20.1157 22.9951
rfingers 7.12502
rthumb 6.22813 -6.89331
lclavicle 2.23967e-014 3.60297e-015
lhumerus -37.6667 17.6278 74.8952
lradius 14.5582
lwrist -5.9809
lhand -25.9001 26.47
lfingers 7.12502
lthumb 0.642216 56.4488
rfemur 9.82215 6.23581 34.5781
rtibia 28.8984
rfoot -19.6738 -2.70328
rtoes -3.22916
lfemur -25.834 -3.43587 -10.1144
ltibia 15.5578
lfoot -4.17656 4.7962
ltoes -3.27225
363
root -0.0641747 17.5159 36.6441 -0.82309 -6.47849 -8.2768
lowerback 9.76588 2.34111 7.54521
upperback 0.0926141 4.08359 2.26227
thorax -5.02823 1.85252 -2.41625
lowerneck -15.552 -2.97173 -1.63826
upperneck 19.4798 -4.05392 1.57267
head 8.71757 -1.86137 0.315695
rclavicle -2.51486e-014 -1.58407e-014
rhumerus -17.3062 -9.89981 -82.0438
rradius 32.314
rwrist 0.581931
rhand -19.8838 23.193
rfingers 7.12502
rthumb 6.45201 -6.68869
lclavicle -2.51486e-014 -1.58407e-014
lhumerus -38.0268 18.0715 74.4624
lradius 14.2901
lwrist -6.65518
lhand -25.7243 26.5994
lfingers 7.12502
lthumb 0.812003 56.5776
rfemur 10.2474 6.12644 34.8417
rtibia 29.618
rfoot -18.9034 -2.39107
rtoes -3.67773
lfemur -26.0954 -2.88963 -10.2906
ltibia 17.3667
lfoot -3.15351 4.3027
ltoes -3.92941
364
root -0.0465823 17.519 36.8611 -0.936306 -6.43239 -8.08342
lowerback 9.68507 2.34611 7.40493
upperback 0.0104053 4.06818 2.18179
thorax -5.07442 1.84427 -2.4189
lowerneck -15.1996 -2.97058 -1.64787
upperneck 19.4327 -4.09845 1.77253
head 8.64321 -1.86515 0.384709
rclavicle 2.65455e-014 2.30093e-014
rhumerus -17.7628 -10.1743 -81.9967
rradius 32.456
rwrist 0.749185
rhand -19.9568 23.9123
rfingers 7.12502
rthumb 6.38154 -5.97153
lclavicle 2.65455e-014 2.30093e-014
lhumerus -38.5123 18.3193 73.9633
lradius 14.1078
lwrist -7.21495
lhand -25.2249 26.6729
lfingers 7.12502
lthumb 1.29434 56.6487
rfemur 10.5995 5.95151 34.4812
rtibia 30.4082
rfoot -18.2193 -2.07404
rtoes -4.81158
lfemur -26.3419 -2.40795 -10.9431
ltibia 19.1335
lfoot -2.01547 3.36691
ltoes -0.695902
365
root -0.0294978 17.5335 37.0786 -1.02158 -6.30298 -7.51633
lowerback 9.40543 2.37005 6.84402
upperback 0.099897 3.99918 2.03716
thorax -4.85456 1.83321 -2.23351
lowerneck -15.5927 -3.02676 -1.45736
upperneck 19.6966 -4.17821 1.56103
head 8.79675 -1.90561 0.264815
rclavicle -6.1631e-015 2.88238e-014
rhumerus -17.8239 -10.4873 -81.9633
rradius 32.5459
rwrist 0.710036
rhand -19.8419 24.5517
rfingers 7.12502
rthumb 6.49243 -5.32879
lclavicle -6.1631e-015 2.88238e-014
lhumerus -38.6247 19.1863 73.3305
lradius 13.7212
lwrist -8.25812
lhand -25.2761 25.7278
lfingers 7.12502
lthumb 1.24492 55.7039
rfemur 10.8276 5.8529 33.7466
rtibia 31.2849
rfoot -17.427 -1.83639
rtoes -6.18407
lfemur -26.7233 -2.52237 -11.7481
ltibia 20.8424
lfoot -0.681017 2.32822
ltoes 3.4447
366
root -0.0137146 17.5454 37.2931 -1.14128 -6.18995 -7.12335
lowerback 9.1395 2.41221 6.41461
upperback 0.249152 3.97583 2.00191
thorax -4.57526 1.84424 -2.01113
lowerneck -15.9208 -3.10861 -1.42584
upperneck 19.7919 -4.25071 1.35266
head 8.88447 -1.95627 0.174402
rclavicle -1.08621e-014 -1.47225e-014
rhumerus -17.7174 -10.9055 -81.7953
rradius 32.4198
rwrist 0.628873
rhand -19.7084 24.6013
rfingers 7.12502
rthumb 6.62136 -5.27514
lclavicle -1.08621e-014 -1.47225e-014
lhumerus -38.4696 19.7169 73.1211
lradius 13.3116
lwrist -9.00126
lhand -25.3585 25.8192
lfingers 7.12502
lthumb 1.16529 55.7958
rfemur 10.8582 5.64597 33.1252
rtibia 32.3754
rfoot -16.2816 -1.12883
rtoes -6.24948
lfemur -26.9404 -2.81963 -12.2753
ltibia 22.3264
lfoot 0.00201757 1.69204
ltoes 3.51026
367
root -0.00363205 17.5538 37.5111 -1.504 -6.09774 -6.86333
lowerback 9.37443 2.43166 6.07121
upperback 0.239615 3.98565 1.99654
thorax -4.73868 1.85113 -1.84099
lowerneck -15.7087 -3.19111 -1.6022
upperneck 19.7791 -4.35227 1.48306
head 8.85041 -2.00492 0.238477
rclavicle 5.71603e-015 1.44492e-014
rhumerus -18.2345 -11.4638 -81.6247
rradius 32.5385
rwrist 0.814829
rhand -19.5504 24.6628
rfingers 7.12502
rthumb 6.77385 -5.20889
lclavicle 5.71603e-015 1.44492e-014
lhumerus -38.7557 20.0997 72.7875
lradius 13.2025
lwrist -9.86049
lhand -24.9514 26.7336
lfingers 7.12502
lthumb 1.55853 56.7076
rfemur 10.9781 5.4202 32.7273
rtibia 33.6783
rfoot -14.7875 -0.535256
rtoes -6.54011
lfemur -26.7181 -2.78801 -12.755
ltibia 23.561
lfoot -0.000668283 1.20421
ltoes 2.8343
368
root 0.00589069 17.561 37.7208 -1.82942 -5.90774 -6.78599
lowerback 9.86397 2.37811 5.86726
upperback 0.0579457 3.94428 2.03862
thorax -5.22475 1.81735 -1.71057
lowerneck -15.2853 -3.24733 -1.9406
upperneck 19.7971 -4.43921 1.86648
head 8.79883 -2.03363 0.419736
rclavicle 1.27409e-014 2.78299e-015
rhumerus -18.9653 -11.7908 -81.4633
rradius 32.5878
rwrist 0.904054
rhand -19.41 24.6643
rfingers 7.12502
rthumb 6.90937 -5.20293
lclavicle 1.27409e-014 2.78299e-015
lhumerus -39.1604 20.0822 72.5765
lradius 13.1324
lwrist -9.94967
lhand -24.7117 27.2584
lfingers 7.12502
lthumb 1.78999 57.2306
rfemur 10.8797 5.21961 32.6154
rtibia 35.237
rfoot -13.0756 -0.172668
rtoes -6.79141
lfemur -26.4468 -2.7075 -13.0263
ltibia 24.6081
lfoot 0.0348991 0.305959
ltoes 4.92869
369
root 0.0249369 17.5685 37.9443 -2.10976 -5.54244 -6.22228
lowerback 9.72356 2.31865 5.35145
upperback 0.0784211 3.78796 1.89304
thorax -5.15676 1.75471 -1.54806
lowerneck -15.1688 -3.32204 -2.07091
upperneck 20.0059 -4.57315 2.10699
head 8.86131 -2.08006 0.506707
rclavicle 1.3748e-014 -1.38528e-014
rhumerus -19.3188 -12.0515 -81.4145
rradius 32.4625
rwrist 0.902749
rhand -19.8867 24.3186
rfingers 7.12502
rthumb 6.44924 -5.56323
lclavicle 1.3748e-014 -1.38528e-014
lhumerus -39.2015 20.1645 72.3846
lradius 12.9002
lwrist -9.98337
lhand -24.6894 27.6188
lfingers 7.12502
lthumb 1.8115 57.5908
rfemur 10.6216 4.72325 31.792
rtibia 37.0757
rfoot -11.3453 0.418802
rtoes -5.96065
lfemur -26.0781 -2.71982 -13.9079
ltibia 25.5009
lfoot 0.21064 -1.33212
ltoes 4.93538
370
root 0.0387513 17.5746 38.1676 -2.37598 -5.26903 -5.59207
lowerback 9.51052 2.30984 4.71107
upperback 0.151514 3.67888 1.72459
thorax -4.9943 1.72091 -1.34101
lowerneck -15.2547 -3.34464 -1.87864
upperneck 20.3163 -4.6339 1.99149
head 8.97705 -2.10282 0.425168
rclavicle -1.70205e-014 -1.52567e-014
rhumerus -19.6611 -12.5653 -81.3668
rradius 32.3692
rwrist 1.16628
rhand -20.2796 23.8624
rfingers 7.12502
rthumb 6.06987 -6.03065
lclavicle -1.70205e-014 -1.52567e-014
lhumerus -39.2032 20.3603 72.1271
lradius 12.7006
lwrist -10.2558
lhand -24.8744 27.3935
lfingers 7.12502
lthumb 1.63289 57.367
rfemur 10.1941 4.17869 30.8252
rtibia 39.0209
rfoot -8.98046 1.08675
rtoes -3.93985
lfemur -25.6923 -2.60787 -14.8378
ltibia 26.25
lfoot 0.554886 -2.93555
ltoes 3.0771
371
root 0.0457628 17.5792 38.3588 -2.56681 -5.11165 -5.56468
lowerback 9.94017 2.29534 4.59028
upperback 0.0272259 3.67912 1.72324
thorax -5.37402 1.71238 -1.29999
lowerneck -15.3165 -3.37538 -1.73983
upperneck 20.6016 -4.68322 1.83666
head 9.08004 -2.12893 0.340654
rclavicle 1.12752e-014 3.66354e-015
rhumerus -20.2591 -13.5888 -81.1657
rradius 32.2713
rwrist 2.02539
rhand -19.936 24.0072
rfingers 7.12502
rthumb 6.40158 -5.87607
lclavicle 1.12752e-014 3.66354e-015
lhumerus -39.324 20.2681 71.9876
lradius 12.6635
lwrist -10.122
lhand -25.2373 27.1888
lfingers 7.12502
lthumb 1.28239 57.1647
rfemur 9.39403 3.78903 30.6303
rtibia 41.0707
rfoot -5.83775 1.28848
rtoes -2.97314
lfemur -25.6023 -2.41606 -15.0196
ltibia 27.1518
lfoot 0.795593 -3.76657
ltoes 2.28396
372
root 0.0692574 17.5874 38.5921 -2.77043 -4.7698 -5.1162
lowerback 9.71268 2.25543 4.28241
upperback 0.0914435 3.56612 1.56571
thorax -5.1921 1.66849 -1.26479
lowerneck -15.2192 -3.48852 -1.90253
upperneck 20.5046 -4.85274 2.0701
head 9.04288 -2.19727 0.428024
rclavicle -6.00955e-015 -1.06536e-014
rhumerus -20.9452 -14.5144 -80.973
rradius 32.4589
rwrist 2.72831
rhand -19.594 24.4807
rfingers 7.12502
rthumb 6.73177 -5.39232
lclavicle -6.00955e-015 -1.06536e-014
lhumerus -39.2196 20.0336 72.005
lradius 12.7759
lwrist -9.65696
lhand -24.8369 27.1418
lfingers 7.12502
lthumb 1.6691 57.115
rfemur 8.79041 2.95826 29.6132
rtibia 43.0862
rfoot -2.46885 1.85675
rtoes -2.27067
lfemur -25.204 -2.44916 -15.8409
ltibia 28.1224
lfoot 0.489032 -3.61147
ltoes 2.50041
373
root 0.0823867 17.5864 38.8072 -3.02304 -5.15568 -5.81749
lowerback 9.85832 2.32816 4.91631
upperback 0.146924 3.75215 1.78392
thorax -5.18198 1.74723 -1.42041
lowerneck -14.9927 -3.50772 -1.89828
upperneck 20.2587 -4.89907 2.16767
head 8.92035 -2.21285 0.460261
rclavicle 2.45658e-014 1.78658e-014
rhumerus -21.6363 -14.8113 -80.8994
rradius 32.7621
rwrist 2.86946
rhand -19.5025 24.6051
rfingers 7.12502
rthumb 6.82012 -5.26502
lclavicle 2.45658e-014 1.78658e-014
lhumerus -39.2342 19.3257 72.3768
lradius 13.2274
lwrist -8.62079
lhand -24.5572 27.1121
lfingers 7.12502
lthumb 1.93921 57.083
rfemur 8.05822 2.878 30.1347
rtibia 45.1861
rfoot 1.06122 2.01447
rtoes -3.24059
lfemur -24.6977 -1.82615 -15.2398
ltibia 29.1689
lfoot 0.0222047 -3.19108
ltoes 3.80286
